<?xml version="1.0" encoding="UTF-8" standalone="no"?>
<!-- Created with Inkscape (http://www.inkscape.org/) -->

<svg
   width="300mm"
   height="100mm"
   viewBox="0 0 300 100"
   version="1.1"
   id="svg5"
   inkscape:export-filename="flag.png"
   inkscape:export-xdpi="96"
   inkscape:export-ydpi="96"
   inkscape:version="1.2.2 (732a01da63, 2022-12-09)"
   sodipodi:docname="flag.svg"
   xmlns:inkscape="http://www.inkscape.org/namespaces/inkscape"
   xmlns:sodipodi="http://sodipodi.sourceforge.net/DTD/sodipodi-0.dtd"
   xmlns="http://www.w3.org/2000/svg"
   xmlns:svg="http://www.w3.org/2000/svg">
  <sodipodi:namedview
     id="namedview7"
     pagecolor="#505050"
     bordercolor="#eeeeee"
     borderopacity="1"
     inkscape:showpageshadow="0"
     inkscape:pageopacity="0"
     inkscape:pagecheckerboard="0"
     inkscape:deskcolor="#505050"
     inkscape:document-units="mm"
     showgrid="false"
     inkscape:zoom="0.84096521"
     inkscape:cx="505.37168"
     inkscape:cy="360.30028"
     inkscape:window-width="1500"
     inkscape:window-height="978"
     inkscape:window-x="-6"
     inkscape:window-y="-6"
     inkscape:window-maximized="1"
     inkscape:current-layer="layer1" />
  <defs
     id="defs2">
    <rect
       x="19.025757"
       y="49.942613"
       width="453.05084"
       height="66.59015"
       id="rect902" />
    <rect
       x="42.041382"
       y="412.00555"
       width="687.797"
       height="297.65298"
       id="rect236" />
  </defs>
  <g
     inkscape:label="图层 1"
     inkscape:groupmode="layer"
     id="layer1">
    <path
       id="text900"
       style="font-size:53.3333px;white-space:pre;shape-inside:url(#rect902);fill:none;stroke:#000000;stroke-width:0.37795276;stroke-dasharray:none;fill-opacity:1"
       d="M 138.49219 57.669923 C 135.54108 57.669923 133.24688 58.487495 131.61133 60.123048 C 130.01133 61.723045 129.21289 64.372541 129.21289 68.070313 L 129.21289 69.722657 L 124.19922 71.32422 L 124.19922 73.509767 L 129.21289 73.509767 L 129.21289 79.669923 L 113.7461 79.669923 L 113.7461 73.509767 L 122.01172 73.509767 L 122.01172 69.882813 L 113.7461 69.882813 L 113.7461 63.32422 L 110.97266 63.32422 L 109.10547 69.404298 L 104.99805 71.269532 L 104.99805 73.509767 L 109.05274 73.509767 L 109.05274 79.669923 L 86.832032 79.669923 C 87.864605 75.530681 90.503565 73.457032 94.757814 73.457032 C 95.753368 73.457032 96.82121 73.598369 97.958986 73.882813 C 99.096762 74.167257 100.09198 74.469064 100.94531 74.789063 L 102.38477 70.896485 C 101.53143 70.469819 100.41206 70.114523 99.025392 69.830079 C 97.674283 69.51008 96.287456 69.34961 94.865236 69.34961 C 92.30524 69.34961 90.012993 69.865376 87.986329 70.896485 C 85.959666 71.927595 84.358879 73.54556 83.185548 75.750001 C 82.60132 76.881942 82.170957 78.191117 81.88672 79.669923 L 70.712892 79.669923 L 81.212892 60.390626 L 76.039063 60.390626 L 66.119141 79.109376 L 56.251954 60.390626 L 51.025391 60.390626 L 61.429688 79.669923 L 44.140626 79.669923 L 51.025391 60.390626 L 45.958985 60.390626 L 39.195313 79.669923 L 30.816407 79.669923 L 24.039063 60.390626 L 19.025391 60.390626 L 25.910157 79.669923 L 16.052735 79.669923 C 15.064585 79.669923 14.269531 80.464977 14.269531 81.453126 L 14.269531 82.642579 C 14.269531 83.630728 15.064585 84.427735 16.052735 84.427735 L 27.609375 84.427735 L 32.625 98.470704 L 37.425782 98.470704 L 42.441407 84.427735 L 63.718751 84.427735 L 63.718751 98.470704 L 68.519532 98.470704 L 68.519532 84.427735 L 81.48047 84.427735 C 81.490589 87.763108 82.040807 90.507464 83.132814 92.656251 C 84.27059 94.825137 85.815933 96.425923 87.771485 97.457032 C 89.727038 98.488142 91.984927 99.003907 94.544923 99.003907 C 96.180476 99.003907 97.567303 98.860617 98.705079 98.576173 C 99.878411 98.327285 100.94625 97.954809 101.90625 97.457032 L 101.90625 93.296876 C 100.9107 93.759098 99.808498 94.150705 98.599611 94.470704 C 97.390724 94.790704 96.021075 94.94922 94.492189 94.94922 C 91.789971 94.94922 89.746041 94.0438 88.359376 92.23047 C 87.027705 90.408183 86.355097 87.804314 86.335939 84.427735 L 109.05274 84.427735 L 109.05274 90.150392 C 109.05274 92.461499 109.44239 94.257113 110.22461 95.537111 C 111.00683 96.817109 112.02118 97.722528 113.26563 98.255861 C 114.54562 98.753638 115.93245 99.003907 117.42578 99.003907 C 118.27911 99.003907 119.16736 98.914107 120.0918 98.736329 C 121.01624 98.594107 121.72683 98.39928 122.22461 98.150392 L 122.22461 94.576173 C 121.76239 94.753951 121.15878 94.897241 120.41211 95.003907 C 119.66545 95.110574 118.93572 95.164064 118.22461 95.164064 C 116.90906 95.164064 115.82599 94.755278 114.97266 93.937501 C 114.15488 93.084169 113.7461 91.785189 113.7461 90.04297 L 113.7461 84.427735 L 129.21289 84.427735 L 129.21289 98.470704 L 133.90625 98.470704 L 133.90625 84.427735 L 143.23828 84.427735 L 143.23828 85.562501 C 145.33606 85.562501 146.93684 85.954108 148.03906 86.736329 C 149.17684 87.482995 149.7461 88.762843 149.7461 90.576173 L 149.7461 98.416017 C 149.7461 101.26046 150.68783 103.37701 152.57227 104.76367 C 154.45671 106.15034 157.03358 106.86093 160.30469 106.89649 L 160.30469 103.05664 C 158.42025 103.02109 156.96275 102.6123 155.93164 101.83008 C 154.90053 101.08341 154.38477 99.837924 154.38477 98.095704 L 154.38477 90.255861 C 154.38477 87.401001 153.19107 85.467633 150.83594 84.427735 L 165.66016 84.427735 C 165.97689 86.364905 166.48088 88.152683 167.18555 89.777345 C 168.5011 92.728451 170.45719 95.003519 173.05274 96.603517 C 175.64829 98.203514 178.88227 99.003907 182.75781 99.003907 C 184.85559 99.003907 186.6512 98.879749 188.14453 98.630861 C 189.67342 98.381972 191.15005 97.990365 192.57227 97.457032 L 192.57227 93.296876 C 191.11449 93.723542 189.63786 94.078838 188.14453 94.363282 C 186.6512 94.647726 185.08673 94.789064 183.45117 94.789064 C 179.07785 94.789064 175.79038 93.421368 173.58594 90.683595 C 172.24715 88.971698 171.32294 86.884745 170.81055 84.427735 L 200.25196 84.427735 L 200.25196 98.470704 L 204.94532 98.470704 L 204.94532 84.427735 L 219.71875 84.427735 L 219.71875 98.470704 L 224.35938 98.470704 L 224.35938 84.427735 L 243.02539 84.427735 L 243.02539 98.470704 L 247.61133 98.470704 L 247.61133 84.427735 L 263.71875 84.427735 L 263.71875 98.470704 L 268.41211 98.470704 L 268.41211 84.427735 L 283.18555 84.427735 L 283.18555 98.470704 L 287.82618 98.470704 L 287.82618 84.427735 L 294.2461 84.427735 L 293.26563 85.830079 L 293.26563 89.830079 L 311.50586 89.830079 L 311.50586 98.470704 L 316.03907 98.470704 L 316.03907 89.830079 L 321.58594 89.830079 L 321.58594 85.617189 L 316.03907 85.617189 L 316.03907 84.427735 L 327.18555 84.427735 L 327.18555 98.470704 L 331.87891 98.470704 L 331.87891 84.427735 L 346.65235 84.427735 L 346.65235 98.470704 L 351.29102 98.470704 L 351.29102 84.427735 L 357.7129 84.427735 L 356.73243 85.830079 L 356.73243 89.830079 L 374.97266 89.830079 L 374.97266 98.470704 L 379.50586 98.470704 L 379.50586 89.830079 L 385.05274 89.830079 L 385.05274 85.617189 L 379.50586 85.617189 L 379.50586 84.427735 L 390.65235 84.427735 L 390.65235 98.470704 L 395.29102 98.470704 L 395.29102 87.962892 L 398.54493 85.13672 L 408.46485 98.470704 L 414.11915 98.470704 L 403.50782 84.427735 L 417.48438 84.427735 C 417.90429 88.223444 418.81931 91.366926 420.25196 93.830079 C 422.31418 97.278963 425.49662 99.003907 429.79883 99.003907 C 432.82105 99.003907 435.25659 98.220693 437.10547 96.656251 C 438.98992 95.091809 440.35761 92.853052 441.21094 89.937501 C 441.69044 88.299206 442.02041 86.447736 442.23047 84.427735 L 456.41602 84.427735 C 453.97398 85.452854 452.73243 87.403487 452.73243 90.310548 L 452.73243 98.04297 C 452.73243 99.785189 452.19948 101.03068 451.13282 101.77735 C 450.10171 102.55957 448.66139 102.98553 446.81251 103.05664 L 446.81251 106.89649 C 449.94139 106.89649 452.48391 106.20307 454.43946 104.81641 C 456.39501 103.42974 457.3711 101.31514 457.3711 98.470704 L 457.3711 90.523439 C 457.3711 88.745664 457.92318 87.482995 459.0254 86.736329 C 460.16317 85.989664 461.78114 85.598057 463.87891 85.562501 L 463.87891 84.427735 L 465.53712 84.427735 C 466.52526 84.427735 467.32032 83.630728 467.32032 82.642579 L 467.32032 81.453126 C 467.32032 80.464977 466.52526 79.669923 465.53712 79.669923 L 458.16602 79.669923 C 457.64076 78.909509 457.3711 77.90804 457.3711 76.656251 L 457.3711 68.869141 C 457.3711 66.024702 456.42937 63.910103 454.54493 62.523438 C 452.66049 61.136774 450.08361 60.426181 446.81251 60.390626 L 446.81251 64.23047 C 448.69695 64.266025 450.15444 64.674811 451.18555 65.457032 C 452.21666 66.203698 452.73243 67.447235 452.73243 69.189454 L 452.73243 76.976563 C 452.73243 77.990229 452.88668 78.885074 453.1836 79.669923 L 442.48438 79.669923 C 442.4849 79.569299 442.49219 79.478308 442.49219 79.376954 C 442.49219 73.190297 441.44348 68.389891 439.34571 64.976563 C 437.24793 61.52768 434.06549 59.802735 429.79883 59.802735 C 426.77662 59.802735 424.34108 60.585949 422.49219 62.150391 C 420.64331 63.679278 419.29279 65.900856 418.43946 68.816407 C 417.62168 71.731958 417.21094 75.252516 417.21094 79.376954 C 417.21094 79.477327 417.21626 79.57026 417.2168 79.669923 L 404.04688 79.669923 L 413.31836 69.882813 L 407.82618 69.882813 L 398.70508 79.53711 C 398.67434 79.571272 398.62386 79.633792 398.5918 79.669923 L 395.26368 79.669923 C 395.26813 79.505301 395.29102 79.251733 395.29102 79.109376 L 395.29102 57.937501 L 390.65235 57.937501 L 390.65235 79.669923 L 379.50586 79.669923 L 379.50586 60.175782 L 374.65235 60.175782 L 361.03516 79.669923 L 351.28516 79.669923 C 351.25496 76.106856 350.38921 73.499039 348.67774 71.857423 C 346.93552 70.186314 344.35864 69.34961 340.94532 69.34961 C 339.13199 69.34961 337.40704 69.724039 335.77149 70.470704 C 334.13594 71.181814 332.85609 72.284014 331.93164 73.777345 L 331.66602 73.777345 L 330.97266 69.882813 L 327.18555 69.882813 L 327.18555 79.669923 L 316.03907 79.669923 L 316.03907 60.175782 L 311.18555 60.175782 L 297.56836 79.669923 L 287.82032 79.669923 C 287.79011 76.106852 286.92242 73.499041 285.21094 71.857423 C 283.46872 70.186314 280.89185 69.34961 277.47852 69.34961 C 275.66519 69.34961 273.94024 69.724039 272.30469 70.470704 C 270.66914 71.181814 269.38929 72.284014 268.46485 73.777345 L 268.19922 73.777345 L 267.50586 69.882813 L 263.71875 69.882813 L 263.71875 79.669923 L 247.61133 79.669923 L 247.61133 60.390626 L 243.71875 60.390626 L 233.42578 68.390626 L 235.87891 71.53711 L 239.93164 68.23047 C 240.6072 67.626026 241.17645 67.127439 241.63867 66.736329 C 242.13645 66.345218 242.6694 65.865764 243.23828 65.296876 C 243.16717 66.29243 243.11368 67.251339 243.07813 68.175782 C 243.04257 69.100225 243.02539 70.328536 243.02539 71.857423 L 243.02539 79.669923 L 224.35352 79.669923 C 224.32266 76.10761 223.43777 73.516806 221.69141 71.910157 C 219.94919 70.239049 217.35318 69.404298 213.9043 69.404298 C 212.05541 69.404298 210.33242 69.776773 208.73242 70.523438 C 207.16798 71.270104 205.92249 72.372304 204.99805 73.830079 L 204.67774 73.830079 C 204.85551 72.585637 204.94532 71.252299 204.94532 69.830079 L 204.94532 57.937501 L 200.25196 57.937501 L 200.25196 79.669923 L 170.33985 79.669923 C 170.33919 79.588351 170.33203 79.51185 170.33203 79.429689 C 170.33203 74.665252 171.5049 70.913556 173.85156 68.175782 C 176.19823 65.438009 179.41698 64.070313 183.50586 64.070313 C 185.21253 64.070313 186.777 64.284272 188.19922 64.710938 C 189.657 65.137604 190.9712 65.617059 192.14453 66.150391 L 194.06446 62.097657 C 191.07779 60.604326 187.57637 59.857423 183.5586 59.857423 C 179.64749 59.857423 176.32371 60.692174 173.58594 62.363282 C 170.84817 63.998835 168.76793 66.293035 167.34571 69.244141 C 165.95904 72.159692 165.26563 75.53696 165.26563 79.376954 C 165.26563 79.476245 165.27069 79.571273 165.27149 79.669923 L 153.91406 79.669923 C 154.22443 78.872736 154.38477 77.960196 154.38477 76.923829 L 154.38477 69.244141 C 154.38477 67.501922 154.90053 66.256432 155.93164 65.509766 C 156.99831 64.727545 158.4558 64.301581 160.30469 64.23047 L 160.30469 60.390626 C 157.17581 60.390626 154.63329 61.084039 152.67774 62.470704 C 150.72218 63.857368 149.7461 65.971967 149.7461 68.816407 L 149.7461 76.710938 C 149.7461 77.949784 149.46267 78.931786 148.91016 79.669923 L 133.90625 79.669923 L 133.90625 73.509767 L 141.10547 73.509767 L 141.10547 69.882813 L 133.90625 69.882813 L 133.90625 68.017579 C 133.90625 65.777583 134.27873 64.140485 135.02539 63.109376 C 135.80761 62.042711 136.98048 61.509766 138.54492 61.509766 C 139.32714 61.509766 140.09123 61.599567 140.83789 61.777345 C 141.58456 61.955122 142.24361 62.13277 142.8125 62.310548 L 144.03906 58.63086 C 143.36351 58.381972 142.54594 58.168013 141.58594 57.990235 C 140.62594 57.776902 139.59441 57.669923 138.49219 57.669923 z M 429.79883 63.802735 C 432.64327 63.802735 434.67002 65.101715 435.87891 67.697266 C 437.12335 70.292818 437.7461 74.185851 437.7461 79.376954 C 437.7461 79.477837 437.74265 79.57002 437.74219 79.669923 L 421.90821 79.669923 C 421.90777 79.570082 421.9043 79.477774 421.9043 79.376954 C 421.9043 74.185851 422.49269 70.292818 423.66602 67.697266 C 424.87491 65.101715 426.91884 63.802735 429.79883 63.802735 z M 311.5586 65.189454 L 311.77149 65.189454 C 311.70038 66.362785 311.62971 67.608276 311.5586 68.923829 C 311.52304 70.203827 311.50586 71.768302 311.50586 73.617188 L 311.50586 79.669923 L 302.02539 79.669923 L 309.26563 69.34961 C 309.65674 68.816278 310.06553 68.159175 310.49219 67.376954 C 310.91886 66.594733 311.27415 65.865008 311.5586 65.189454 z M 375.0254 65.189454 L 375.23829 65.189454 C 375.16717 66.362785 375.09651 67.608276 375.0254 68.923829 C 374.98984 70.203827 374.97266 71.768302 374.97266 73.617188 L 374.97266 79.669923 L 365.49219 79.669923 L 372.73243 69.34961 C 373.12354 68.816278 373.53232 68.159175 373.95899 67.376954 C 374.38566 66.594733 374.74095 65.865008 375.0254 65.189454 z M 213.31836 73.296876 C 217.42289 73.296876 219.54716 75.42522 219.70313 79.669923 L 205.3086 79.669923 C 205.59898 78.218439 206.05959 76.995591 206.70508 76.017579 C 207.91397 74.204249 210.11837 73.296876 213.31836 73.296876 z M 276.78516 73.296876 C 280.88969 73.296876 283.01396 75.42522 283.16993 79.669923 L 268.77539 79.669923 C 269.07371 78.194885 269.55145 76.952835 270.22461 75.962892 C 271.4335 74.185117 273.62072 73.296876 276.78516 73.296876 z M 340.25196 73.296876 C 344.35649 73.296876 346.48075 75.42522 346.63672 79.669923 L 332.24219 79.669923 C 332.54051 78.194885 333.01825 76.952835 333.69141 75.962892 C 334.9003 74.185117 337.08752 73.296876 340.25196 73.296876 z M 32.488282 84.427735 L 37.525391 84.427735 L 37.425782 84.710939 C 36.856894 86.310936 36.377439 87.80279 35.986329 89.189454 C 35.595218 90.576119 35.27428 91.892277 35.025391 93.13672 C 34.740947 91.892277 34.40283 90.595251 34.011719 89.244142 C 33.656164 87.857477 33.193888 86.380849 32.625 84.816407 L 32.488282 84.427735 z M 298.68555 84.427735 L 311.50586 84.427735 L 311.50586 85.617189 L 297.85157 85.617189 L 298.68555 84.427735 z M 362.15235 84.427735 L 374.97266 84.427735 L 374.97266 85.617189 L 361.31836 85.617189 L 362.15235 84.427735 z M 422.12891 84.427735 L 437.50977 84.427735 C 437.22595 87.22994 436.68542 89.481912 435.87891 91.164064 C 434.67002 93.72406 432.64327 95.003907 429.79883 95.003907 C 426.91884 95.003907 424.87491 93.704928 423.66602 91.109376 C 422.90838 89.43339 422.39733 87.200756 422.12891 84.427735 z "
       transform="scale(0.26458333)" />
  </g>
</svg>
